<mxfile host="65bd71144e">
    <diagram id="ZtJxsbCz-6ZV153QqjcJ" name="Page-1">
        <mxGraphModel dx="2340" dy="1463" grid="1" gridSize="10" guides="1" tooltips="1" connect="1" arrows="1" fold="1" page="0" pageScale="1" pageWidth="850" pageHeight="1100" background="#ffffff" math="0" shadow="0">
            <root>
                <mxCell id="0"/>
                <mxCell id="1" parent="0"/>
                <mxCell id="50" value="" style="rounded=0;whiteSpace=wrap;html=1;" parent="1" vertex="1">
                    <mxGeometry x="1480" y="1220" width="10" height="60" as="geometry"/>
                </mxCell>
                <mxCell id="46" value="" style="rounded=0;whiteSpace=wrap;html=1;" parent="1" vertex="1">
                    <mxGeometry x="1280" y="1010" width="10" height="60" as="geometry"/>
                </mxCell>
                <mxCell id="48" value="" style="rounded=0;whiteSpace=wrap;html=1;" parent="1" vertex="1">
                    <mxGeometry x="870" y="630" width="10" height="60" as="geometry"/>
                </mxCell>
                <mxCell id="47" value="" style="rounded=0;whiteSpace=wrap;html=1;" parent="1" vertex="1">
                    <mxGeometry x="870" y="210" width="10" height="70" as="geometry"/>
                </mxCell>
                <mxCell id="45" value="" style="rounded=0;whiteSpace=wrap;html=1;" parent="1" vertex="1">
                    <mxGeometry x="1080" y="450" width="10" height="50" as="geometry"/>
                </mxCell>
                <mxCell id="2" value="User" style="shape=umlLifeline;perimeter=lifelinePerimeter;whiteSpace=wrap;container=1;dropTarget=0;collapsible=0;recursiveResize=0;outlineConnect=0;portConstraint=eastwest;newEdgeStyle={&quot;edgeStyle&quot;:&quot;elbowEdgeStyle&quot;,&quot;elbow&quot;:&quot;vertical&quot;,&quot;curved&quot;:0,&quot;rounded&quot;:0};participant=umlActor;verticalAlign=bottom;labelPosition=center;verticalLabelPosition=top;align=center;size=65;" parent="1" vertex="1">
                    <mxGeometry x="120" y="20" width="35" height="1330" as="geometry"/>
                </mxCell>
                <mxCell id="3" value="HomePageView" style="shape=umlLifeline;perimeter=lifelinePerimeter;whiteSpace=wrap;container=1;dropTarget=0;collapsible=0;recursiveResize=0;outlineConnect=0;portConstraint=eastwest;newEdgeStyle={&quot;edgeStyle&quot;:&quot;elbowEdgeStyle&quot;,&quot;elbow&quot;:&quot;vertical&quot;,&quot;curved&quot;:0,&quot;rounded&quot;:0};size=65;fillColor=#dae8fc;strokeColor=#6c8ebf;" parent="1" vertex="1">
                    <mxGeometry x="312" y="20" width="150" height="1330" as="geometry"/>
                </mxCell>
                <mxCell id="4" value="HomePageController" style="shape=umlLifeline;perimeter=lifelinePerimeter;whiteSpace=wrap;container=1;dropTarget=0;collapsible=0;recursiveResize=0;outlineConnect=0;portConstraint=eastwest;newEdgeStyle={&quot;edgeStyle&quot;:&quot;elbowEdgeStyle&quot;,&quot;elbow&quot;:&quot;vertical&quot;,&quot;curved&quot;:0,&quot;rounded&quot;:0};size=65;fillColor=#d5e8d4;strokeColor=#82b366;" parent="1" vertex="1">
                    <mxGeometry x="562" y="20" width="172" height="1330" as="geometry"/>
                </mxCell>
                <mxCell id="5" value="RouteGenerator" style="shape=umlLifeline;perimeter=lifelinePerimeter;whiteSpace=wrap;container=1;dropTarget=0;collapsible=0;recursiveResize=0;outlineConnect=0;portConstraint=eastwest;newEdgeStyle={&quot;edgeStyle&quot;:&quot;elbowEdgeStyle&quot;,&quot;elbow&quot;:&quot;vertical&quot;,&quot;curved&quot;:0,&quot;rounded&quot;:0};size=65;fillColor=#ffe6cc;strokeColor=#d79b00;" parent="1" vertex="1">
                    <mxGeometry x="800" y="20" width="150" height="1330" as="geometry"/>
                </mxCell>
                <mxCell id="6" value="SearchBar" style="shape=umlLifeline;perimeter=lifelinePerimeter;whiteSpace=wrap;container=1;dropTarget=0;collapsible=0;recursiveResize=0;outlineConnect=0;portConstraint=eastwest;newEdgeStyle={&quot;edgeStyle&quot;:&quot;elbowEdgeStyle&quot;,&quot;elbow&quot;:&quot;vertical&quot;,&quot;curved&quot;:0,&quot;rounded&quot;:0};size=65;fillColor=#fff2cc;strokeColor=#d6b656;" parent="1" vertex="1">
                    <mxGeometry x="1010" y="20" width="150" height="1330" as="geometry"/>
                </mxCell>
                <mxCell id="7" value="Clicks &quot;Generate Route&quot;" style="verticalAlign=bottom;edgeStyle=elbowEdgeStyle;elbow=vertical;curved=0;rounded=0;endArrow=block;" parent="1" source="2" target="3" edge="1">
                    <mxGeometry relative="1" as="geometry">
                        <Array as="points">
                            <mxPoint x="250" y="123"/>
                        </Array>
                    </mxGeometry>
                </mxCell>
                <mxCell id="8" value="btnGeneratePersonalizedRoutePress()" style="verticalAlign=bottom;edgeStyle=elbowEdgeStyle;elbow=vertical;curved=0;rounded=0;endArrow=block;" parent="1" source="3" target="4" edge="1">
                    <mxGeometry relative="1" as="geometry">
                        <Array as="points">
                            <mxPoint x="526" y="171"/>
                        </Array>
                    </mxGeometry>
                </mxCell>
                <mxCell id="9" value="generatePersonalizedRoute()" style="verticalAlign=bottom;edgeStyle=elbowEdgeStyle;elbow=vertical;curved=0;rounded=0;endArrow=block;" parent="1" source="4" target="5" edge="1">
                    <mxGeometry relative="1" as="geometry">
                        <Array as="points">
                            <mxPoint x="796" y="219"/>
                        </Array>
                    </mxGeometry>
                </mxCell>
                <mxCell id="10" value="Array&lt;float&gt; (route)" style="verticalAlign=bottom;edgeStyle=elbowEdgeStyle;elbow=vertical;curved=0;rounded=0;dashed=1;dashPattern=2 3;endArrow=block;" parent="1" source="5" target="4" edge="1">
                    <mxGeometry relative="1" as="geometry">
                        <Array as="points">
                            <mxPoint x="799" y="267"/>
                        </Array>
                    </mxGeometry>
                </mxCell>
                <mxCell id="11" value="displayMap(route)" style="verticalAlign=bottom;edgeStyle=elbowEdgeStyle;elbow=vertical;curved=0;rounded=0;endArrow=block;" parent="1" source="4" target="3" edge="1">
                    <mxGeometry relative="1" as="geometry">
                        <Array as="points">
                            <mxPoint x="529" y="315"/>
                        </Array>
                    </mxGeometry>
                </mxCell>
                <mxCell id="13" value="Types in SearchBar" style="verticalAlign=bottom;edgeStyle=elbowEdgeStyle;elbow=vertical;curved=0;rounded=0;endArrow=block;" parent="1" source="2" target="3" edge="1">
                    <mxGeometry relative="1" as="geometry">
                        <Array as="points">
                            <mxPoint x="290" y="420"/>
                            <mxPoint x="250" y="391"/>
                        </Array>
                        <mxPoint x="136.9473684210525" y="420" as="sourcePoint"/>
                        <mxPoint x="386.5000000000002" y="420" as="targetPoint"/>
                    </mxGeometry>
                </mxCell>
                <mxCell id="14" value="btnSearchBarPress()" style="verticalAlign=bottom;edgeStyle=elbowEdgeStyle;elbow=vertical;curved=0;rounded=0;endArrow=block;" parent="1" source="3" target="6" edge="1">
                    <mxGeometry relative="1" as="geometry">
                        <Array as="points">
                            <mxPoint x="765" y="459"/>
                        </Array>
                    </mxGeometry>
                </mxCell>
                <mxCell id="15" value="viewSearchResults()" style="verticalAlign=bottom;edgeStyle=elbowEdgeStyle;elbow=vertical;curved=0;rounded=0;dashed=1;dashPattern=2 3;endArrow=block;" parent="1" source="6" target="3" edge="1">
                    <mxGeometry relative="1" as="geometry">
                        <Array as="points">
                            <mxPoint x="500" y="490"/>
                            <mxPoint x="768" y="507"/>
                        </Array>
                    </mxGeometry>
                </mxCell>
                <mxCell id="19" value="Drags Map" style="verticalAlign=bottom;edgeStyle=elbowEdgeStyle;elbow=vertical;curved=0;rounded=0;endArrow=block;" parent="1" source="2" target="3" edge="1">
                    <mxGeometry relative="1" as="geometry">
                        <Array as="points">
                            <mxPoint x="243.05" y="590"/>
                        </Array>
                        <mxPoint x="129.9973684210525" y="590" as="sourcePoint"/>
                        <mxPoint x="379.55000000000024" y="590" as="targetPoint"/>
                    </mxGeometry>
                </mxCell>
                <mxCell id="20" value="dragMapDisplay(Array&lt;float&gt;)" style="verticalAlign=bottom;edgeStyle=elbowEdgeStyle;elbow=vertical;curved=0;rounded=0;endArrow=block;" parent="1" source="3" target="5" edge="1">
                    <mxGeometry relative="1" as="geometry">
                        <Array as="points">
                            <mxPoint x="658.05" y="638"/>
                        </Array>
                        <mxPoint x="379.4973684210527" y="638" as="sourcePoint"/>
                        <mxPoint x="867.5500000000002" y="638" as="targetPoint"/>
                    </mxGeometry>
                </mxCell>
                <mxCell id="21" value="moveMapDisplay(Array&lt;float&gt;)" style="verticalAlign=bottom;edgeStyle=elbowEdgeStyle;elbow=vertical;curved=0;rounded=0;dashed=1;dashPattern=2 3;endArrow=block;" parent="1" source="5" target="3" edge="1">
                    <mxGeometry relative="1" as="geometry">
                        <Array as="points">
                            <mxPoint x="661.05" y="686"/>
                        </Array>
                        <mxPoint x="867.5500000000002" y="686" as="sourcePoint"/>
                        <mxPoint x="379" y="686" as="targetPoint"/>
                    </mxGeometry>
                </mxCell>
                <mxCell id="28" value="&lt;span style=&quot;color: rgb(0, 0, 0); text-align: center;&quot;&gt;btnViewMapPress()&lt;/span&gt;" style="html=1;align=left;spacingLeft=2;endArrow=block;rounded=0;edgeStyle=orthogonalEdgeStyle;curved=0;rounded=0;" parent="1" edge="1">
                    <mxGeometry x="-0.8977" y="10" relative="1" as="geometry">
                        <mxPoint x="386.4473684210527" y="790.0026315789476" as="sourcePoint"/>
                        <Array as="points">
                            <mxPoint x="500" y="789.95"/>
                            <mxPoint x="500" y="819.95"/>
                        </Array>
                        <mxPoint x="386.4473684210527" y="820.0026315789476" as="targetPoint"/>
                        <mxPoint as="offset"/>
                    </mxGeometry>
                </mxCell>
                <mxCell id="29" value="Clicks &quot;Map Button&quot;" style="verticalAlign=bottom;edgeStyle=elbowEdgeStyle;elbow=vertical;curved=0;rounded=0;endArrow=block;" parent="1" source="2" target="3" edge="1">
                    <mxGeometry relative="1" as="geometry">
                        <Array as="points">
                            <mxPoint x="246.05" y="750"/>
                        </Array>
                        <mxPoint x="140" y="750" as="sourcePoint"/>
                        <mxPoint x="390" y="750" as="targetPoint"/>
                    </mxGeometry>
                </mxCell>
                <mxCell id="30" value="Clicks &quot;Hamburger Menu&quot;" style="verticalAlign=bottom;edgeStyle=elbowEdgeStyle;elbow=vertical;curved=0;rounded=0;endArrow=block;" parent="1" source="2" target="3" edge="1">
                    <mxGeometry relative="1" as="geometry">
                        <Array as="points">
                            <mxPoint x="250.05" y="940"/>
                        </Array>
                        <mxPoint x="140" y="940" as="sourcePoint"/>
                        <mxPoint x="391" y="940" as="targetPoint"/>
                    </mxGeometry>
                </mxCell>
                <mxCell id="32" value="Menu" style="shape=umlLifeline;perimeter=lifelinePerimeter;whiteSpace=wrap;container=1;dropTarget=0;collapsible=0;recursiveResize=0;outlineConnect=0;portConstraint=eastwest;newEdgeStyle={&quot;edgeStyle&quot;:&quot;elbowEdgeStyle&quot;,&quot;elbow&quot;:&quot;vertical&quot;,&quot;curved&quot;:0,&quot;rounded&quot;:0};size=65;fillColor=#f8cecc;strokeColor=#b85450;" parent="1" vertex="1">
                    <mxGeometry x="1210" y="20" width="150" height="1330" as="geometry"/>
                </mxCell>
                <mxCell id="34" value="btnHamburgerMenuPress()" style="verticalAlign=bottom;edgeStyle=elbowEdgeStyle;elbow=vertical;curved=0;rounded=0;endArrow=block;fontSize=12;" parent="1" edge="1">
                    <mxGeometry relative="1" as="geometry">
                        <Array as="points">
                            <mxPoint x="490" y="970"/>
                        </Array>
                        <mxPoint x="386.54761904761926" y="970" as="sourcePoint"/>
                        <mxPoint x="647.5" y="970" as="targetPoint"/>
                    </mxGeometry>
                </mxCell>
                <mxCell id="36" value="generateUpdatedMenu()" style="verticalAlign=bottom;edgeStyle=elbowEdgeStyle;elbow=vertical;curved=0;rounded=0;endArrow=block;fontSize=12;" parent="1" source="4" target="32" edge="1">
                    <mxGeometry relative="1" as="geometry">
                        <Array as="points">
                            <mxPoint x="753.45" y="1020"/>
                        </Array>
                        <mxPoint x="649.9976190476193" y="1020" as="sourcePoint"/>
                        <mxPoint x="910.95" y="1020" as="targetPoint"/>
                    </mxGeometry>
                </mxCell>
                <mxCell id="37" value="viewUpdatedMenu()" style="verticalAlign=bottom;edgeStyle=elbowEdgeStyle;elbow=vertical;curved=0;rounded=0;dashed=1;dashPattern=2 3;endArrow=block;" parent="1" edge="1">
                    <mxGeometry relative="1" as="geometry">
                        <Array as="points">
                            <mxPoint x="1260" y="1060"/>
                            <mxPoint x="971" y="1582"/>
                        </Array>
                        <mxPoint x="1284.5" y="1060" as="sourcePoint"/>
                        <mxPoint x="647.7" y="1060" as="targetPoint"/>
                    </mxGeometry>
                </mxCell>
                <mxCell id="38" value="displayMenuPage()" style="verticalAlign=bottom;edgeStyle=elbowEdgeStyle;elbow=vertical;curved=0;rounded=0;endArrow=block;fontSize=12;" parent="1" source="4" target="3" edge="1">
                    <mxGeometry relative="1" as="geometry">
                        <Array as="points">
                            <mxPoint x="493.45" y="1090"/>
                        </Array>
                        <mxPoint x="389.99761904761925" y="1090" as="sourcePoint"/>
                        <mxPoint x="310" y="1050" as="targetPoint"/>
                    </mxGeometry>
                </mxCell>
                <mxCell id="39" value="displayExhibitInfo()" style="verticalAlign=bottom;edgeStyle=elbowEdgeStyle;elbow=vertical;curved=0;rounded=0;endArrow=block;fontSize=12;" parent="1" edge="1">
                    <mxGeometry relative="1" as="geometry">
                        <Array as="points">
                            <mxPoint x="560" y="1310"/>
                            <mxPoint x="661.62" y="2930"/>
                        </Array>
                        <mxPoint x="647.5" y="1310" as="sourcePoint"/>
                        <mxPoint x="386.07142857142844" y="1310" as="targetPoint"/>
                    </mxGeometry>
                </mxCell>
                <mxCell id="40" value="Clicks on any Exhibit" style="verticalAlign=bottom;edgeStyle=elbowEdgeStyle;elbow=vertical;curved=0;rounded=0;endArrow=block;" parent="1" source="2" target="3" edge="1">
                    <mxGeometry relative="1" as="geometry">
                        <Array as="points">
                            <mxPoint x="255.82000000000002" y="1160"/>
                        </Array>
                        <mxPoint x="140.0007692307693" y="1159.9999999999998" as="sourcePoint"/>
                        <mxPoint x="389.27" y="1159.9999999999998" as="targetPoint"/>
                    </mxGeometry>
                </mxCell>
                <mxCell id="41" value="Menu" style="shape=umlLifeline;perimeter=lifelinePerimeter;whiteSpace=wrap;container=1;dropTarget=0;collapsible=0;recursiveResize=0;outlineConnect=0;portConstraint=eastwest;newEdgeStyle={&quot;edgeStyle&quot;:&quot;elbowEdgeStyle&quot;,&quot;elbow&quot;:&quot;vertical&quot;,&quot;curved&quot;:0,&quot;rounded&quot;:0};size=65;fillColor=#e1d5e7;strokeColor=#9673a6;" parent="1" vertex="1">
                    <mxGeometry x="1410" y="20" width="150" height="1310" as="geometry"/>
                </mxCell>
                <mxCell id="42" value="fetchExhibitInfo()" style="verticalAlign=bottom;edgeStyle=elbowEdgeStyle;elbow=vertical;curved=0;rounded=0;endArrow=block;fontSize=12;" parent="1" source="4" target="41" edge="1">
                    <mxGeometry relative="1" as="geometry">
                        <Array as="points">
                            <mxPoint x="1020" y="1230"/>
                            <mxPoint x="757.5" y="1630"/>
                        </Array>
                        <mxPoint x="647.3235294117646" y="1230" as="sourcePoint"/>
                        <mxPoint x="1484.5" y="1230" as="targetPoint"/>
                    </mxGeometry>
                </mxCell>
                <mxCell id="43" value="updateExhibitInfo()" style="verticalAlign=bottom;edgeStyle=elbowEdgeStyle;elbow=vertical;curved=0;rounded=0;endArrow=block;fontSize=12;" parent="1" source="41" target="4" edge="1">
                    <mxGeometry relative="1" as="geometry">
                        <Array as="points">
                            <mxPoint x="1033.04" y="1270"/>
                            <mxPoint x="770.54" y="1670"/>
                        </Array>
                        <mxPoint x="1484.5" y="1270.0000000000002" as="sourcePoint"/>
                        <mxPoint x="647.0714285714284" y="1270.0000000000002" as="targetPoint"/>
                    </mxGeometry>
                </mxCell>
                <mxCell id="44" value="btnExhibitInfoPress()" style="verticalAlign=bottom;edgeStyle=elbowEdgeStyle;elbow=vertical;curved=0;rounded=0;endArrow=block;fontSize=12;" parent="1" source="3" target="4" edge="1">
                    <mxGeometry relative="1" as="geometry">
                        <Array as="points">
                            <mxPoint x="498.82000000000005" y="1200"/>
                        </Array>
                        <mxPoint x="380" y="1200" as="sourcePoint"/>
                        <mxPoint x="630" y="1200" as="targetPoint"/>
                    </mxGeometry>
                </mxCell>
                <mxCell id="51" value="&lt;div&gt;&lt;font color=&quot;#000000&quot;&gt;Home Page&lt;/font&gt;&lt;/div&gt;&lt;div&gt;Sequence Diagram&lt;/div&gt;" style="shape=umlFrame;whiteSpace=wrap;html=1;pointerEvents=0;width=190;height=40;fillStyle=solid;" vertex="1" parent="1">
                    <mxGeometry x="30" y="-50" width="1650" height="1410" as="geometry"/>
                </mxCell>
            </root>
        </mxGraphModel>
    </diagram>
</mxfile>